<mxfile
  host="Electron" 
  agent="Mozilla/5.0 (Macintosh; Intel Mac OS X 10_15_7) AppleWebKit/537.36 (KHTML, like Gecko) draw.io/25.0.2 Chrome/128.0.6613.186 Electron/32.2.5 Safari/537.36" 
  version="25.0.2"
  >
  <diagram
    name="-"
    >
    <mxGraphModel
      grid="1" 
      gridSize="10" 
      guides="1" 
      tooltips="1" 
      connect="1" 
      arrows="1" 
      fold="1" 
      page="1" 
      pageScale="1" 
      pageWidth="1" 
      pageHeight="1" 
      math="0" 
      shadow="0"
      >
      <root>
        <mxCell
          id="page"
          />
        <mxCell
          id="root" 
          parent="page"
          />
        <mxCell
          style="verticalAlign=top;aspect=fixed;align=center;spacingLeft=5;spacingRight=5;spacingBottom=5;strokeColor=none;" 
          id="shape_" 
          parent="root" 
          value=" " 
          vertex="1"
          >
          <mxGeometry
            as="geometry" 
            width="60" 
            height="56" 
            x="0" 
            y="0"
            />
          </mxCell>
        <mxCell
          style="editableCssRules=.*;html=1;shape=image;verticalLabelPosition=bottom;labelBackgroundColor=#ffffff;verticalAlign=top;aspect=fixed;imageAspect=0;image=data:image/svg+xml,PHN2ZyB4bWxucz0iaHR0cDovL3d3dy53My5vcmcvMjAwMC9zdmciIHhtbG5zOnY9Imh0dHBzOi8vdmVjdGEuaW8vbmFubyIgd2lkdGg9IjM3Ny42ODQ2NTY1OTk1Nzg4MyIgaGVpZ2h0PSIzMzguNTIwNDc5NDMzNDQ2MiIgdmlld0JveD0iMC4wNjUwMDAwMDUwNjYzOTQ4IDAuNDc5OTk5NTQyMjM2MzI4MSA5OS45MjkwMDA4NTQ0OTIxOSA4OS41NjcwMDEzNDI3NzM0NCI+JiN4YTs8c3R5bGUgdHlwZT0idGV4dC9jc3MiPiYjeGE7CS5zdDB7ZmlsbDojYWVjYmZhO30mI3hhOwkuc3Qxe2ZpbGw6IzY2OWRmNjt9JiN4YTsJLnN0MntmaWxsOiM0Mjg1ZjQ7fSYjeGE7CS5zdDN7ZmlsbDojZmZmO30mI3hhOzwvc3R5bGU+JiN4YTsJPHBhdGggY2xhc3M9InN0MCIgZD0iTTU5LjU1NCAzNS42MmgzMC45NFY5Ljk4bDkuNS05LjVoLTQ5Ljk0djQ0LjY0em0yOS45ODEgNTQuNDI3VjUzLjYzNWwtOS41IDkuNXYxNy40MTJ6bS01MC4xMjggMFY1My42MzVsLTkuNSA5LjV2MTcuNDEyem0wLTQ0LjU3OVY5LjA1NmwtOS41IDkuNXYxNy40MTJ6IiBmaWxsPSIjYWVjYmZhIi8+JiN4YTsJPHBhdGggY2xhc3M9InN0MSIgZD0iTTk5Ljk5NCA0NS4xMlYuNDhsLTkuNSA5LjV2MjUuNjR6bS00OS44IDQ0LjkyN2gzOS4zNDJsLTkuNS05LjVINTkuNjkzem0tNTAuMTI4IDBoMzkuMzQybC05LjUtOS41SDkuNTY1em0wLTQ0LjU3OWgzOS4zNDJsLTkuNS05LjVIOS41NjV6IiBmaWxsPSIjNjY5ZGY2Ii8+JiN4YTsJPHBhdGggY2xhc3M9InN0MiIgZD0iTTUwLjA1NCA0NS4xMmg0OS45NGwtOS41LTkuNWgtMzAuOTR6bTkuNjM5IDM1LjQyN1Y2My4xMzVoMjAuMzQybDkuNS05LjVINTAuMTkzdjM2LjQxMnptLTUwLjEyOCAwVjYzLjEzNWgyMC4zNDJsOS41LTkuNUguMDY1djM2LjQxMnptMC00NC41NzlWMTguNTU2aDIwLjM0Mmw5LjUtOS41SC4wNjV2MzYuNDEyeiIgZmlsbD0iIzQyODVmNCIvPiYjeGE7CTxwYXRoIGNsYXNzPSJzdDMiIGQ9Ik04Mi42ODUgMTQuMTk4bC0xMC4yNjcgOS4yMDgtNC43ODUtNC4zNS00LjExMiAzLjY3IDguOTMgNy44ODYgMTQuMTgyLTEyLjcyNnoiIGZpbGw9IiNmZmYiLz4mI3hhOzwvc3ZnPg;strokeColor=none;" 
          id="recommendations_ai_" 
          parent="shape_" 
          value=" " 
          vertex="1"
          >
          <mxGeometry
            width="40" 
            height="36" 
            as="geometry" 
            x="10" 
            y="10"
            />
          </mxCell>
        </root>
      </mxGraphModel>
    </diagram>
  </mxfile>